<mxfile host="app.diagrams.net" agent="Mozilla/5.0 (Windows NT 10.0; Win64; x64) AppleWebKit/537.36 (KHTML, like Gecko) Chrome/134.0.0.0 Safari/537.36 Edg/134.0.0.0" version="26.1.0">
  <diagram name="ページ1" id="zlKbTMHIiBRrQ5CjfzFU">
    <mxGraphModel dx="1064" dy="705" grid="1" gridSize="10" guides="1" tooltips="1" connect="1" arrows="1" fold="1" page="1" pageScale="1" pageWidth="827" pageHeight="1169" math="0" shadow="0">
      <root>
        <mxCell id="0" />
        <mxCell id="1" parent="0" />
        <mxCell id="m4wfhcvvvU-qXCF2xnEX-6" value="Public subnet" style="points=[[0,0],[0.25,0],[0.5,0],[0.75,0],[1,0],[1,0.25],[1,0.5],[1,0.75],[1,1],[0.75,1],[0.5,1],[0.25,1],[0,1],[0,0.75],[0,0.5],[0,0.25]];outlineConnect=0;gradientColor=none;html=1;whiteSpace=wrap;fontSize=12;fontStyle=0;container=1;pointerEvents=0;collapsible=0;recursiveResize=0;shape=mxgraph.aws4.group;grIcon=mxgraph.aws4.group_security_group;grStroke=0;strokeColor=#7AA116;fillColor=#F2F6E8;verticalAlign=top;align=left;spacingLeft=30;fontColor=#248814;dashed=0;" parent="1" vertex="1">
          <mxGeometry x="120" y="280" width="200" height="240" as="geometry" />
        </mxCell>
        <mxCell id="xBb1YnBclAOfvvlmu4EM-16" style="edgeStyle=orthogonalEdgeStyle;rounded=0;orthogonalLoop=1;jettySize=auto;html=1;" parent="1" source="xBb1YnBclAOfvvlmu4EM-12" target="xBb1YnBclAOfvvlmu4EM-6" edge="1">
          <mxGeometry relative="1" as="geometry">
            <Array as="points">
              <mxPoint x="757" y="60" />
              <mxPoint x="340" y="60" />
            </Array>
          </mxGeometry>
        </mxCell>
        <mxCell id="xBb1YnBclAOfvvlmu4EM-12" value="" style="sketch=0;outlineConnect=0;fontColor=#232F3E;gradientColor=none;fillColor=#232F3D;strokeColor=none;dashed=0;verticalLabelPosition=bottom;verticalAlign=top;align=center;html=1;fontSize=12;fontStyle=0;aspect=fixed;pointerEvents=1;shape=mxgraph.aws4.internet;" parent="1" vertex="1">
          <mxGeometry x="720" y="276" width="74.75" height="46" as="geometry" />
        </mxCell>
        <mxCell id="xBb1YnBclAOfvvlmu4EM-19" style="edgeStyle=orthogonalEdgeStyle;rounded=0;orthogonalLoop=1;jettySize=auto;html=1;" parent="1" source="xBb1YnBclAOfvvlmu4EM-13" target="xBb1YnBclAOfvvlmu4EM-12" edge="1">
          <mxGeometry relative="1" as="geometry" />
        </mxCell>
        <mxCell id="xBb1YnBclAOfvvlmu4EM-13" value="" style="sketch=0;outlineConnect=0;fontColor=#232F3E;gradientColor=none;fillColor=#232F3D;strokeColor=none;dashed=0;verticalLabelPosition=bottom;verticalAlign=top;align=center;html=1;fontSize=12;fontStyle=0;aspect=fixed;pointerEvents=1;shape=mxgraph.aws4.client;" parent="1" vertex="1">
          <mxGeometry x="736.84" y="390" width="41.06" height="40" as="geometry" />
        </mxCell>
        <mxCell id="K1DaaUpVmXXfKqTNinK6-5" value="AWS Cloud" style="points=[[0,0],[0.25,0],[0.5,0],[0.75,0],[1,0],[1,0.25],[1,0.5],[1,0.75],[1,1],[0.75,1],[0.5,1],[0.25,1],[0,1],[0,0.75],[0,0.5],[0,0.25]];outlineConnect=0;gradientColor=none;html=1;whiteSpace=wrap;fontSize=12;fontStyle=0;container=1;pointerEvents=0;collapsible=0;recursiveResize=0;shape=mxgraph.aws4.group;grIcon=mxgraph.aws4.group_aws_cloud;strokeColor=#232F3E;fillColor=none;verticalAlign=top;align=left;spacingLeft=30;fontColor=#232F3E;dashed=0;" parent="1" vertex="1">
          <mxGeometry x="40" y="100" width="640" height="780" as="geometry" />
        </mxCell>
        <mxCell id="m4wfhcvvvU-qXCF2xnEX-2" value="Public subnet" style="points=[[0,0],[0.25,0],[0.5,0],[0.75,0],[1,0],[1,0.25],[1,0.5],[1,0.75],[1,1],[0.75,1],[0.5,1],[0.25,1],[0,1],[0,0.75],[0,0.5],[0,0.25]];outlineConnect=0;gradientColor=none;html=1;whiteSpace=wrap;fontSize=12;fontStyle=0;container=1;pointerEvents=0;collapsible=0;recursiveResize=0;shape=mxgraph.aws4.group;grIcon=mxgraph.aws4.group_security_group;grStroke=0;strokeColor=#7AA116;fillColor=#F2F6E8;verticalAlign=top;align=left;spacingLeft=30;fontColor=#248814;dashed=0;" parent="K1DaaUpVmXXfKqTNinK6-5" vertex="1">
          <mxGeometry x="320" y="180" width="200" height="240" as="geometry" />
        </mxCell>
        <mxCell id="xBb1YnBclAOfvvlmu4EM-2" value="" style="sketch=0;points=[[0,0,0],[0.25,0,0],[0.5,0,0],[0.75,0,0],[1,0,0],[0,1,0],[0.25,1,0],[0.5,1,0],[0.75,1,0],[1,1,0],[0,0.25,0],[0,0.5,0],[0,0.75,0],[1,0.25,0],[1,0.5,0],[1,0.75,0]];outlineConnect=0;fontColor=#232F3E;fillColor=#ED7100;strokeColor=#ffffff;verticalLabelPosition=bottom;verticalAlign=top;align=center;html=1;fontSize=12;fontStyle=0;aspect=fixed;shape=mxgraph.aws4.resourceIcon;resIcon=mxgraph.aws4.ec2;" parent="m4wfhcvvvU-qXCF2xnEX-2" vertex="1">
          <mxGeometry x="80" y="95" width="40" height="40" as="geometry" />
        </mxCell>
        <mxCell id="5dKkzOB765-Y8zMm40eB-2" value="raisetech002" style="text;strokeColor=none;align=center;fillColor=default;html=1;verticalAlign=middle;whiteSpace=wrap;rounded=0;" parent="m4wfhcvvvU-qXCF2xnEX-2" vertex="1">
          <mxGeometry x="70" y="135" width="60" height="20" as="geometry" />
        </mxCell>
        <mxCell id="xBb1YnBclAOfvvlmu4EM-1" value="" style="sketch=0;points=[[0,0,0],[0.25,0,0],[0.5,0,0],[0.75,0,0],[1,0,0],[0,1,0],[0.25,1,0],[0.5,1,0],[0.75,1,0],[1,1,0],[0,0.25,0],[0,0.5,0],[0,0.75,0],[1,0.25,0],[1,0.5,0],[1,0.75,0]];outlineConnect=0;fontColor=#232F3E;fillColor=#ED7100;strokeColor=#ffffff;dashed=0;verticalLabelPosition=bottom;verticalAlign=top;align=center;html=1;fontSize=12;fontStyle=0;aspect=fixed;shape=mxgraph.aws4.resourceIcon;resIcon=mxgraph.aws4.ec2;" parent="K1DaaUpVmXXfKqTNinK6-5" vertex="1">
          <mxGeometry x="160" y="275" width="40" height="40" as="geometry" />
        </mxCell>
        <mxCell id="xBb1YnBclAOfvvlmu4EM-8" value="" style="sketch=0;outlineConnect=0;fontColor=#232F3E;gradientColor=none;fillColor=#8C4FFF;strokeColor=none;dashed=0;verticalLabelPosition=bottom;verticalAlign=top;align=center;html=1;fontSize=12;fontStyle=0;aspect=fixed;pointerEvents=1;shape=mxgraph.aws4.application_load_balancer;" parent="K1DaaUpVmXXfKqTNinK6-5" vertex="1">
          <mxGeometry x="280" y="160" width="40" height="40" as="geometry" />
        </mxCell>
        <mxCell id="xBb1YnBclAOfvvlmu4EM-10" style="edgeStyle=orthogonalEdgeStyle;rounded=0;orthogonalLoop=1;jettySize=auto;html=1;entryX=0.5;entryY=0;entryDx=0;entryDy=0;entryPerimeter=0;" parent="K1DaaUpVmXXfKqTNinK6-5" source="xBb1YnBclAOfvvlmu4EM-8" target="xBb1YnBclAOfvvlmu4EM-1" edge="1">
          <mxGeometry relative="1" as="geometry">
            <Array as="points">
              <mxPoint x="300" y="242" />
              <mxPoint x="180" y="242" />
              <mxPoint x="180" y="275" />
            </Array>
          </mxGeometry>
        </mxCell>
        <mxCell id="xBb1YnBclAOfvvlmu4EM-11" style="edgeStyle=orthogonalEdgeStyle;rounded=0;orthogonalLoop=1;jettySize=auto;html=1;entryX=0.5;entryY=0;entryDx=0;entryDy=0;entryPerimeter=0;" parent="K1DaaUpVmXXfKqTNinK6-5" source="xBb1YnBclAOfvvlmu4EM-8" target="xBb1YnBclAOfvvlmu4EM-2" edge="1">
          <mxGeometry relative="1" as="geometry">
            <Array as="points">
              <mxPoint x="420" y="242" />
            </Array>
          </mxGeometry>
        </mxCell>
        <mxCell id="m4wfhcvvvU-qXCF2xnEX-8" value="Private subnet" style="points=[[0,0],[0.25,0],[0.5,0],[0.75,0],[1,0],[1,0.25],[1,0.5],[1,0.75],[1,1],[0.75,1],[0.5,1],[0.25,1],[0,1],[0,0.75],[0,0.5],[0,0.25]];outlineConnect=0;gradientColor=none;html=1;whiteSpace=wrap;fontSize=12;fontStyle=0;container=1;pointerEvents=0;collapsible=0;recursiveResize=0;shape=mxgraph.aws4.group;grIcon=mxgraph.aws4.group_security_group;grStroke=0;strokeColor=#00A4A6;fillColor=#E6F6F7;verticalAlign=top;align=left;spacingLeft=30;fontColor=#147EBA;dashed=0;" parent="K1DaaUpVmXXfKqTNinK6-5" vertex="1">
          <mxGeometry x="320" y="460" width="200" height="240" as="geometry" />
        </mxCell>
        <mxCell id="m4wfhcvvvU-qXCF2xnEX-7" value="Private subnet" style="points=[[0,0],[0.25,0],[0.5,0],[0.75,0],[1,0],[1,0.25],[1,0.5],[1,0.75],[1,1],[0.75,1],[0.5,1],[0.25,1],[0,1],[0,0.75],[0,0.5],[0,0.25]];outlineConnect=0;gradientColor=none;html=1;whiteSpace=wrap;fontSize=12;fontStyle=0;container=1;pointerEvents=0;collapsible=0;recursiveResize=0;shape=mxgraph.aws4.group;grIcon=mxgraph.aws4.group_security_group;grStroke=0;strokeColor=#00A4A6;fillColor=#E6F6F7;verticalAlign=top;align=left;spacingLeft=30;fontColor=#147EBA;dashed=0;" parent="K1DaaUpVmXXfKqTNinK6-5" vertex="1">
          <mxGeometry x="80" y="460" width="200" height="240" as="geometry" />
        </mxCell>
        <mxCell id="xBb1YnBclAOfvvlmu4EM-4" value="" style="sketch=0;points=[[0,0,0],[0.25,0,0],[0.5,0,0],[0.75,0,0],[1,0,0],[0,1,0],[0.25,1,0],[0.5,1,0],[0.75,1,0],[1,1,0],[0,0.25,0],[0,0.5,0],[0,0.75,0],[1,0.25,0],[1,0.5,0],[1,0.75,0]];outlineConnect=0;fontColor=#232F3E;fillColor=#C925D1;strokeColor=#ffffff;dashed=0;verticalLabelPosition=bottom;verticalAlign=top;align=center;html=1;fontSize=12;fontStyle=0;aspect=fixed;shape=mxgraph.aws4.resourceIcon;resIcon=mxgraph.aws4.rds;" parent="m4wfhcvvvU-qXCF2xnEX-7" vertex="1">
          <mxGeometry x="80" y="100" width="40" height="40" as="geometry" />
        </mxCell>
        <mxCell id="xBb1YnBclAOfvvlmu4EM-15" style="edgeStyle=orthogonalEdgeStyle;rounded=0;orthogonalLoop=1;jettySize=auto;html=1;entryX=0.75;entryY=0;entryDx=0;entryDy=0;entryPerimeter=0;" parent="K1DaaUpVmXXfKqTNinK6-5" source="xBb1YnBclAOfvvlmu4EM-2" target="xBb1YnBclAOfvvlmu4EM-4" edge="1">
          <mxGeometry relative="1" as="geometry">
            <mxPoint x="201" y="410" as="targetPoint" />
            <Array as="points">
              <mxPoint x="420" y="430" />
              <mxPoint x="190" y="430" />
            </Array>
          </mxGeometry>
        </mxCell>
        <mxCell id="xBb1YnBclAOfvvlmu4EM-5" style="edgeStyle=orthogonalEdgeStyle;rounded=0;orthogonalLoop=1;jettySize=auto;html=1;entryX=0.5;entryY=0;entryDx=0;entryDy=0;entryPerimeter=0;" parent="K1DaaUpVmXXfKqTNinK6-5" source="xBb1YnBclAOfvvlmu4EM-1" target="xBb1YnBclAOfvvlmu4EM-4" edge="1">
          <mxGeometry relative="1" as="geometry">
            <Array as="points">
              <mxPoint x="180" y="560" />
            </Array>
          </mxGeometry>
        </mxCell>
        <mxCell id="BjAGtfVqTpXYPW2iN1xQ-1" value="raisetech001" style="text;strokeColor=none;align=center;fillColor=default;html=1;verticalAlign=middle;whiteSpace=wrap;rounded=0;" parent="K1DaaUpVmXXfKqTNinK6-5" vertex="1">
          <mxGeometry x="160" y="315" width="60" height="20" as="geometry" />
        </mxCell>
        <mxCell id="5dKkzOB765-Y8zMm40eB-7" value="raisetech001-subnet-public1" style="text;strokeColor=none;align=center;fillColor=default;html=1;verticalAlign=middle;whiteSpace=wrap;rounded=0;" parent="K1DaaUpVmXXfKqTNinK6-5" vertex="1">
          <mxGeometry x="100" y="210" width="170" height="20" as="geometry" />
        </mxCell>
        <mxCell id="5dKkzOB765-Y8zMm40eB-8" value="raisetech001-subnet-public2" style="text;strokeColor=none;align=center;fillColor=default;html=1;verticalAlign=middle;whiteSpace=wrap;rounded=0;" parent="K1DaaUpVmXXfKqTNinK6-5" vertex="1">
          <mxGeometry x="340" y="210" width="160" height="20" as="geometry" />
        </mxCell>
        <mxCell id="5dKkzOB765-Y8zMm40eB-10" value="10.0.0.0/20" style="text;strokeColor=none;align=center;fillColor=none;html=1;verticalAlign=middle;whiteSpace=wrap;rounded=0;" parent="K1DaaUpVmXXfKqTNinK6-5" vertex="1">
          <mxGeometry x="110" y="245" width="60" as="geometry" />
        </mxCell>
        <mxCell id="5dKkzOB765-Y8zMm40eB-11" style="edgeStyle=orthogonalEdgeStyle;rounded=0;orthogonalLoop=1;jettySize=auto;html=1;exitX=0;exitY=0;exitDx=0;exitDy=0;" parent="K1DaaUpVmXXfKqTNinK6-5" source="5dKkzOB765-Y8zMm40eB-10" target="5dKkzOB765-Y8zMm40eB-10" edge="1">
          <mxGeometry relative="1" as="geometry" />
        </mxCell>
        <mxCell id="5dKkzOB765-Y8zMm40eB-12" value="10.0.16.0/20" style="text;strokeColor=none;align=center;fillColor=none;html=1;verticalAlign=middle;whiteSpace=wrap;rounded=0;" parent="K1DaaUpVmXXfKqTNinK6-5" vertex="1">
          <mxGeometry x="440" y="230" width="60" height="30" as="geometry" />
        </mxCell>
        <mxCell id="5dKkzOB765-Y8zMm40eB-14" value="raisetech001-subnet-private2" style="text;strokeColor=none;align=center;fillColor=default;html=1;verticalAlign=middle;whiteSpace=wrap;rounded=0;" parent="K1DaaUpVmXXfKqTNinK6-5" vertex="1">
          <mxGeometry x="335" y="490" width="170" height="20" as="geometry" />
        </mxCell>
        <mxCell id="5dKkzOB765-Y8zMm40eB-15" value="raisetech001-subnet-private1" style="text;strokeColor=none;align=center;fillColor=default;html=1;verticalAlign=middle;whiteSpace=wrap;rounded=0;" parent="K1DaaUpVmXXfKqTNinK6-5" vertex="1">
          <mxGeometry x="100" y="490" width="170" height="20" as="geometry" />
        </mxCell>
        <mxCell id="5dKkzOB765-Y8zMm40eB-16" value="raisetech001-vpc" style="text;strokeColor=none;align=center;fillColor=default;html=1;verticalAlign=middle;whiteSpace=wrap;rounded=0;" parent="K1DaaUpVmXXfKqTNinK6-5" vertex="1">
          <mxGeometry x="125" y="110" width="110" height="20" as="geometry" />
        </mxCell>
        <mxCell id="5dKkzOB765-Y8zMm40eB-17" value="&lt;span class=&quot;awsui_root_xjuzf_18lrx_1063&quot;&gt;&lt;span id=&quot;1384-1741244239739-3728&quot; class=&quot;awsui_trigger_xjuzf_18lrx_1103&quot;&gt;&lt;div class=&quot;awsui_root_18wu0_1gw4i_920 awsui_box_18wu0_1gw4i_172 awsui_m-right-xs_18wu0_1gw4i_734 awsui_color-default_18wu0_1gw4i_172 awsui_font-size-default_18wu0_1gw4i_188 awsui_font-weight-default_18wu0_1gw4i_228&quot;&gt;&lt;/div&gt;&lt;/span&gt;&lt;div data-awsui-referrer-id=&quot;1384-1741244239739-3728&quot; class=&quot;awsui-polaris-compact-mode awsui-compact-mode awsui-visual-refresh awsui_popover-inline-content_xjuzf_18lrx_1158&quot; aria-atomic=&quot;true&quot; aria-live=&quot;polite&quot;&gt;&lt;/div&gt;&lt;/span&gt;10.0.128.0/20" style="text;strokeColor=none;align=center;fillColor=none;html=1;verticalAlign=middle;whiteSpace=wrap;rounded=0;" parent="K1DaaUpVmXXfKqTNinK6-5" vertex="1">
          <mxGeometry x="100" y="510" width="90" height="30" as="geometry" />
        </mxCell>
        <mxCell id="5dKkzOB765-Y8zMm40eB-19" value="10.0.144.0/20" style="text;strokeColor=none;align=center;fillColor=none;html=1;verticalAlign=middle;whiteSpace=wrap;rounded=0;" parent="K1DaaUpVmXXfKqTNinK6-5" vertex="1">
          <mxGeometry x="415" y="510" width="90" height="30" as="geometry" />
        </mxCell>
        <mxCell id="5dKkzOB765-Y8zMm40eB-20" value="10.0.0.0/16" style="text;strokeColor=none;align=center;fillColor=none;html=1;verticalAlign=middle;whiteSpace=wrap;rounded=0;" parent="K1DaaUpVmXXfKqTNinK6-5" vertex="1">
          <mxGeometry x="350" y="107.5" width="70" height="25" as="geometry" />
        </mxCell>
        <mxCell id="wyW_AYG_MPaqOVctC6zA-1" value="ap-northeast-1a" style="text;strokeColor=none;align=center;fillColor=default;html=1;verticalAlign=middle;whiteSpace=wrap;rounded=0;" parent="K1DaaUpVmXXfKqTNinK6-5" vertex="1">
          <mxGeometry x="80" y="160" width="110" height="10" as="geometry" />
        </mxCell>
        <mxCell id="wyW_AYG_MPaqOVctC6zA-4" value="ap-northeast-1ｃ" style="text;strokeColor=none;align=center;fillColor=default;html=1;verticalAlign=middle;whiteSpace=wrap;rounded=0;" parent="K1DaaUpVmXXfKqTNinK6-5" vertex="1">
          <mxGeometry x="405" y="160" width="110" height="10" as="geometry" />
        </mxCell>
        <mxCell id="xBb1YnBclAOfvvlmu4EM-20" value="" style="sketch=0;points=[[0,0,0],[0.25,0,0],[0.5,0,0],[0.75,0,0],[1,0,0],[0,1,0],[0.25,1,0],[0.5,1,0],[0.75,1,0],[1,1,0],[0,0.25,0],[0,0.5,0],[0,0.75,0],[1,0.25,0],[1,0.5,0],[1,0.75,0]];outlineConnect=0;fontColor=#232F3E;fillColor=#7AA116;strokeColor=#ffffff;dashed=0;verticalLabelPosition=bottom;verticalAlign=top;align=center;html=1;fontSize=12;fontStyle=0;aspect=fixed;shape=mxgraph.aws4.resourceIcon;resIcon=mxgraph.aws4.s3;" parent="K1DaaUpVmXXfKqTNinK6-5" vertex="1">
          <mxGeometry x="580" y="20" width="42" height="42" as="geometry" />
        </mxCell>
        <mxCell id="K1DaaUpVmXXfKqTNinK6-4" value="VPC" style="points=[[0,0],[0.25,0],[0.5,0],[0.75,0],[1,0],[1,0.25],[1,0.5],[1,0.75],[1,1],[0.75,1],[0.5,1],[0.25,1],[0,1],[0,0.75],[0,0.5],[0,0.25]];outlineConnect=0;gradientColor=none;html=1;whiteSpace=wrap;fontSize=12;fontStyle=0;container=1;pointerEvents=0;collapsible=0;recursiveResize=0;shape=mxgraph.aws4.group;grIcon=mxgraph.aws4.group_vpc2;strokeColor=#8C4FFF;fillColor=none;verticalAlign=top;align=left;spacingLeft=30;fontColor=#AAB7B8;dashed=0;" parent="K1DaaUpVmXXfKqTNinK6-5" vertex="1">
          <mxGeometry x="40" y="100" width="520" height="640" as="geometry" />
        </mxCell>
        <mxCell id="xBb1YnBclAOfvvlmu4EM-6" value="" style="sketch=0;outlineConnect=0;fontColor=#232F3E;gradientColor=none;fillColor=#8C4FFF;strokeColor=none;dashed=0;verticalLabelPosition=bottom;verticalAlign=top;align=center;html=1;fontSize=12;fontStyle=0;aspect=fixed;pointerEvents=1;shape=mxgraph.aws4.internet_gateway;" parent="K1DaaUpVmXXfKqTNinK6-4" vertex="1">
          <mxGeometry x="240" y="-20" width="40" height="40" as="geometry" />
        </mxCell>
        <mxCell id="e8VrWvpyOL7nPPhMgUPw-9" style="edgeStyle=orthogonalEdgeStyle;rounded=0;orthogonalLoop=1;jettySize=auto;html=1;entryX=1;entryY=0.5;entryDx=0;entryDy=0;entryPerimeter=0;" parent="K1DaaUpVmXXfKqTNinK6-4" target="xBb1YnBclAOfvvlmu4EM-4" edge="1">
          <mxGeometry relative="1" as="geometry">
            <mxPoint x="490" y="340" as="sourcePoint" />
            <mxPoint x="190" y="480" as="targetPoint" />
            <Array as="points">
              <mxPoint x="180" y="340" />
              <mxPoint x="180" y="480" />
            </Array>
          </mxGeometry>
        </mxCell>
        <mxCell id="m4wfhcvvvU-qXCF2xnEX-9" value="Availability Zone" style="fillColor=none;strokeColor=#147EBA;dashed=1;verticalAlign=top;fontStyle=0;fontColor=#147EBA;whiteSpace=wrap;html=1;" parent="K1DaaUpVmXXfKqTNinK6-4" vertex="1">
          <mxGeometry x="20" y="40" width="230" height="580" as="geometry" />
        </mxCell>
        <mxCell id="m4wfhcvvvU-qXCF2xnEX-12" value="Availability Zone" style="fillColor=none;strokeColor=#147EBA;dashed=1;verticalAlign=top;fontStyle=0;fontColor=#147EBA;whiteSpace=wrap;html=1;" parent="K1DaaUpVmXXfKqTNinK6-4" vertex="1">
          <mxGeometry x="270" y="40" width="230" height="580" as="geometry" />
        </mxCell>
        <mxCell id="xBb1YnBclAOfvvlmu4EM-14" value="" style="edgeStyle=orthogonalEdgeStyle;rounded=0;orthogonalLoop=1;jettySize=auto;html=1;" parent="K1DaaUpVmXXfKqTNinK6-5" source="xBb1YnBclAOfvvlmu4EM-6" target="xBb1YnBclAOfvvlmu4EM-8" edge="1">
          <mxGeometry relative="1" as="geometry">
            <Array as="points">
              <mxPoint x="300" y="140" />
              <mxPoint x="300" y="140" />
            </Array>
          </mxGeometry>
        </mxCell>
        <mxCell id="e8VrWvpyOL7nPPhMgUPw-6" style="edgeStyle=orthogonalEdgeStyle;rounded=0;orthogonalLoop=1;jettySize=auto;html=1;entryX=0.348;entryY=0.733;entryDx=0;entryDy=0;entryPerimeter=0;exitX=0.5;exitY=1;exitDx=0;exitDy=0;exitPerimeter=0;" parent="K1DaaUpVmXXfKqTNinK6-5" source="xBb1YnBclAOfvvlmu4EM-20" edge="1">
          <mxGeometry relative="1" as="geometry">
            <Array as="points">
              <mxPoint x="600" y="62" />
              <mxPoint x="600" y="440" />
            </Array>
            <mxPoint x="599.96" y="70" as="sourcePoint" />
            <mxPoint x="570" y="440.13999999999993" as="targetPoint" />
          </mxGeometry>
        </mxCell>
        <mxCell id="e8VrWvpyOL7nPPhMgUPw-7" value="" style="sketch=0;outlineConnect=0;fontColor=#232F3E;gradientColor=none;fillColor=#8C4FFF;strokeColor=none;dashed=0;verticalLabelPosition=bottom;verticalAlign=top;align=center;html=1;fontSize=12;fontStyle=0;aspect=fixed;pointerEvents=1;shape=mxgraph.aws4.endpoints;" parent="1" vertex="1">
          <mxGeometry x="570" y="520" width="40" height="40" as="geometry" />
        </mxCell>
      </root>
    </mxGraphModel>
  </diagram>
</mxfile>
